<svg width="80" height="22" viewBox="0 0 80 22" fill="none" xmlns="http://www.w3.org/2000/svg">
<g clip-path="url(#clip0)">
<path d="M18.6667 18.5122C18.6667 18.5991 18.6667 18.686 18.6667 18.8598C18.6667 19.7289 18.6667 20.5981 18.6667 21.4672C18.6667 21.728 18.5778 21.8149 18.4 21.8149C15.1111 21.8149 11.7333 21.8149 8.44444 21.8149C6.75556 21.8149 5.06667 21.3803 3.64444 20.4243C1.95556 19.3813 1.06667 17.7299 0.533333 15.9048C0.177778 14.601 0 13.2973 0 11.9936C0 10.1685 0 8.34327 0.444444 6.605C0.711111 5.47512 1.06667 4.34524 1.68889 3.30228C2.75556 1.73784 4.35556 0.781788 6.22222 0.34722C7.2 0.173393 8.17778 -0.000434242 9.15555 -0.000434242C12.0889 -0.0873478 15.0222 -0.000434242 18.0444 -0.000434242C18.3111 -0.000434242 18.4 0.0864793 18.4 0.34722C18.4 1.21636 18.4 2.08549 18.4 2.95463C18.4 3.21537 18.3111 3.30228 18.0444 3.30228C15.7333 3.30228 13.4222 3.30228 11.1111 3.30228C10.2222 3.30228 9.24444 3.3892 8.35555 3.56302C6.48889 3.82376 5.42222 5.04055 4.88889 6.69191C4.44444 8.16944 4.35556 9.64697 4.35556 11.1245C4.35556 12.3413 4.44444 13.4712 4.71111 14.688C5.15556 16.687 6.4 17.8169 8.35555 18.1645C9.15555 18.3383 10.0444 18.4252 10.9333 18.4252C13.4222 18.4252 15.9111 18.4252 18.4889 18.4252C18.4889 18.5122 18.5778 18.5122 18.6667 18.5122Z" fill="#5BB73B"/>
<path d="M79.9999 12.3418C79.9999 14.5146 79.9999 16.6005 79.9999 18.7734C79.9999 19.121 79.9999 19.3818 79.911 19.7294C79.6443 20.8593 78.9332 21.4677 77.6888 21.6415C77.2443 21.7284 76.7999 21.7284 76.3554 21.7284C74.1332 21.7284 71.9999 21.7284 69.7777 21.7284C68.9777 21.7284 68.2666 21.5546 67.5554 21.2939C65.9554 20.7724 65.0666 19.5556 64.711 17.9911C64.5332 17.2958 64.4443 16.6874 64.4443 15.9921C64.4443 12.5156 64.4443 9.12596 64.4443 5.64941C64.4443 5.38867 64.5332 5.30176 64.7999 5.30176C65.7777 5.30176 66.7554 5.30176 67.8221 5.30176C68.0888 5.30176 68.1777 5.38867 68.1777 5.64941C68.1777 8.69139 68.1777 11.7334 68.1777 14.8623C68.1777 15.4706 68.2666 16.079 68.3554 16.6874C68.6221 18.0781 69.3332 18.8603 70.7554 18.9472C72.2666 19.0341 73.7777 19.0341 75.2888 19.0341C75.911 19.0341 76.2666 18.5995 76.3554 17.9911C76.3554 17.8173 76.3554 17.6435 76.3554 17.3827C76.3554 13.4716 76.3554 9.64744 76.3554 5.73633C76.3554 5.30176 76.3554 5.30176 76.7999 5.30176C77.7777 5.30176 78.7554 5.30176 79.7332 5.30176C79.9999 5.30176 80.0888 5.38867 80.0888 5.64941C79.9999 7.82225 79.9999 10.082 79.9999 12.3418Z" fill="#5BB73B"/>
<path d="M62.9332 18.9472C62.9332 19.9032 62.9332 20.7724 62.9332 21.6415C62.8443 21.6415 62.6666 21.6415 62.5777 21.6415C58.6666 21.6415 54.7554 21.6415 50.8443 21.6415C50.4888 21.6415 50.2221 21.6415 49.8666 21.5546C48.8888 21.2939 48.4443 20.6855 48.4443 19.5556C48.4443 18.6865 48.711 17.9911 49.3332 17.3827C50.0443 16.6005 50.8443 15.8183 51.6443 15.123C53.7777 12.9502 55.9999 10.8642 58.1332 8.7783C58.311 8.60447 58.5777 8.43065 58.4888 8.16991C58.3999 7.90917 58.0443 7.99608 57.7777 7.99608C55.0221 7.99608 52.1777 7.99608 49.4221 7.99608C48.8888 7.99608 48.9777 7.99608 48.9777 7.56151C48.9777 6.95312 48.9777 6.34472 48.9777 5.73633C48.9777 5.30176 48.8888 5.30176 49.4221 5.30176C53.1554 5.30176 56.8888 5.30176 60.6221 5.30176C60.8888 5.30176 61.1554 5.30176 61.4221 5.38867C62.5777 5.64941 63.1999 6.60546 63.0221 7.73534C62.9332 8.51756 62.4888 9.21287 61.9554 9.73435C59.111 12.6025 56.2666 15.4706 53.4221 18.3388C53.3332 18.4257 53.2443 18.5126 53.1554 18.6865C53.0666 18.8603 53.0666 18.9472 53.3332 19.0341C53.4221 19.0341 53.511 19.0341 53.5999 19.0341C56.6221 19.0341 59.5554 19.0341 62.5777 19.0341C62.6666 18.9472 62.7554 18.9472 62.9332 18.9472Z" fill="#5BB73B"/>
<path d="M24.7108 21.7285C24.622 21.7285 24.5331 21.7285 24.4442 21.7285C23.3775 21.7285 22.3997 21.7285 21.3331 21.7285C21.0664 21.7285 21.0664 21.6416 21.0664 21.4677C21.0664 17.9043 21.0664 14.3408 21.0664 10.7774C21.0664 9.99515 21.2442 9.29984 21.5109 8.60453C22.1331 6.86626 23.5553 5.99712 25.2442 5.64947C25.9553 5.47564 26.7553 5.47564 27.4664 5.38873C28.3553 5.30181 29.1553 5.38873 30.0442 5.38873C30.222 5.38873 30.3108 5.47564 30.3108 5.64947C30.3108 6.43169 30.3108 7.127 30.3108 7.90922C30.3108 8.08305 30.222 8.16996 30.0442 8.16996C29.2442 8.16996 28.5331 8.16996 27.7331 8.25687C26.0442 8.4307 25.0664 9.47367 24.7997 11.125C24.7108 11.6465 24.7108 12.2549 24.7108 12.7764C24.7108 15.6445 24.7108 18.5127 24.7108 21.4677C24.7108 21.3808 24.7108 21.5547 24.7108 21.7285Z" fill="#5BB73B"/>
<path d="M35.4667 14.6885C38.5778 14.6885 41.6889 14.6885 44.8889 14.6885C46.3111 14.6885 47.1111 13.9932 47.3778 12.6026C47.5556 11.6465 47.4667 10.6036 47.2889 9.64753C46.8445 7.4747 45.6889 6.08408 43.4667 5.5626C41.6889 5.21494 40 5.12803 38.2222 5.21494C37.2445 5.30186 36.3556 5.38877 35.3778 5.64951C33.3334 6.17099 32 7.38778 31.5556 9.38679C31.3778 10.3428 31.2889 11.3858 31.2 12.3419C31.1111 14.0801 31.2 15.7315 31.5556 17.4698C31.8223 18.6865 32.3556 19.8164 33.4222 20.5986C34.4889 21.294 35.6445 21.6416 36.8889 21.6416C40.1778 21.6416 43.4667 21.6416 46.6667 21.6416C46.7556 21.6416 46.8445 21.6416 46.9333 21.6416C46.9333 21.5547 46.9333 21.4678 46.9333 21.3809C46.9333 20.6856 46.9333 19.9903 46.9333 19.208C46.9333 18.9473 46.8445 18.8604 46.5778 18.8604C44 18.8604 41.3334 18.8604 38.7556 18.8604C38.4 18.8604 38.0445 18.8604 37.6 18.7735C36.5334 18.5996 35.6445 18.1651 35.2889 17.0352C35.0223 16.253 35.0223 15.4707 35.0223 14.6016C35.2 14.6885 35.2889 14.6885 35.4667 14.6885ZM35.0223 11.9073C35.0223 10.9512 35.1111 10.0821 35.6445 9.29988C36 8.69148 36.6222 8.34383 37.2445 8.17C38.6667 7.82235 40.1778 7.82235 41.6 8.17C42.9334 8.60457 43.7334 9.64753 43.6445 10.9512C43.6445 11.5596 43.2889 11.8204 42.6667 11.8204C40.1778 11.8204 37.6889 11.8204 35.2889 11.8204C35.2 11.9942 35.1111 11.9073 35.0223 11.9073Z" fill="#5BB73B"/>
</g>
<defs>
<clipPath id="clip0">
<rect width="80" height="21.7284" fill="white"/>
</clipPath>
</defs>
</svg>
